:FULLY-SPECIFIED
:DEGREES
63
root -0.567874014377594 -0.567874014377594 -0.567874014377594 -0.5678755879732001 -0.5678755879732001 -0.5678755879732001
lhipjoint -9.671654586443837e-08 -1.5341245206083327e-07 1.0672170578144923e-06
lfemur -16.768088799171917 -3.1317093960123117 -14.72637791662044
ltibia 22.259559184314874 -6.026730779266662e-07 5.260278167683838e-07
lfoot -18.261115217770637 -7.742640538804978e-09 13.109661894794666
ltoes -53.18598297249937 6.822836338255707e-07 9.355231633404387e-07
rhipjoint 1.1005675908711953e-07 6.870210827458292e-07 -1.494104084495789e-06
rfemur -7.887215585585584 5.442267836796303 10.868932106433713
rtibia 4.0856420034700305 1.0659397470544166e-07 4.3400646933581555e-08
rfoot -17.365935257223132 1.3479353584442076e-06 -15.372110830942615
rtoes -4.294781115195351 -3.220389983849162e-07 -3.789586629642614e-07
lowerback 22.69137569647413 0.8490062275717779 -1.3116424208959803
upperback 0.4146470707722812 0.8915308252617186 0.979886365808415
thorax -12.186490965254805 0.5122095462375962 1.526124341377838
lowerneck -11.457395592112624 -2.029057957114028 -1.9248847656666397
upperneck 23.5797988923852 -3.0151462414105206 2.3060364286666197
head 9.370881229926802 -1.331763944747426 0.7745436119620046
lclavicle -1.4085775951116125e-07 5.4855408257763046e-08 -1.0938974842598547e-06
lhumerus 5.051511006832581 35.071382142614674 15.224150150499922
lradius 27.18268099088461 -2.035021680727663e-07 2.9020215491221545e-06
lwrist -1.415392633238678e-06 -54.69808440190264 3.412865448730106e-07
lhand -4.562975323145072 2.6246558075710764e-07 -26.656099019086014
lfingers 7.125022823272814 9.845282338726802e-08 3.18924141240953e-07
lthumb 21.213298854421275 -1.2803152392500461e-07 2.20318914769186
rclavicle 1.398304276268298e-07 4.3880174074018323e-07 -1.3740421654916584e-06
rhumerus 1.4953735490739712 -33.359395227150976 -11.290400882000396
rradius 34.15372915215053 -2.5492028727517807e-07 -3.7278645310497586e-06
rwrist 4.5507401826817447e-07 43.726734462638234 1.01728509731476e-06
rhand -6.972260092956778 2.0321462048512455e-07 -36.68780446630613
rfingers 7.125022396385991 5.1024341088409163e-08 -3.1892353057445414e-07
rthumb 18.897492480477187 1.5447771905696147e-06 -65.78980959509936
64
root -0.567874014377594 -0.567874014377594 -0.567874014377594 -0.5678755879732001 -0.5678755879732001 -0.5678755879732001
lhipjoint -9.671654586443837e-08 -1.5341245206083327e-07 1.0672170578144923e-06
lfemur -17.2809386756442 -2.9141537836822424 -15.044350543241213
ltibia 23.154288352377158 -1.4794828965140389e-06 3.6812635527457046e-07
lfoot -18.577790108449108 -1.1389412629918645e-06 12.67052085852422
ltoes -53.80214458280997 2.859928561801419e-07 1.1689345551934393e-06
rhipjoint 1.1005675908711953e-07 6.870210827458292e-07 -1.494104084495789e-06
rfemur -8.034543619756406 5.160549000516311 10.96930600515528
rtibia 4.601293965049313 2.2373751851161093e-07 -8.015601339344417e-07
rfoot -17.8797003790442 1.2241184511387037e-06 -15.23356898136537
rtoes -4.3008749245954725 -3.245536212493936e-07 -4.3374633812952805e-07
lowerback 22.757978578618214 0.8703710592955778 -1.1631266808615173
upperback 0.03492971748252413 0.9805965987603906 1.0436120307646342
thorax -12.573718294964921 0.5518109830453302 1.4803756275953868
lowerneck -11.457395592112624 -2.029057957114028 -1.9248847656666397
upperneck 23.5797988923852 -3.0151462414105206 2.3060364286666197
head 9.370881229926802 -1.331763944747426 0.7745436119620046
lclavicle -1.4085775951116125e-07 5.4855408257763046e-08 -1.0938974842598547e-06
lhumerus -3.166572602526761 32.94860032970973 12.197064098089983
lradius 29.384662262310435 -9.194072673250255e-07 2.6023328937059438e-06
lwrist -1.2542222739765689e-06 -52.02557481364922 3.024249247753299e-07
lhand -4.562975323145072 2.6246558075710764e-07 -26.656099019086014
lfingers 7.125022823272814 9.845282338726802e-08 3.18924141240953e-07
lthumb 21.213298854421275 -1.2803152392500461e-07 2.20318914769186
rclavicle 1.398304276268298e-07 4.3880174074018323e-07 -1.3740421654916584e-06
rhumerus -6.650818157124461 -32.74461331505272 -8.582785828960404
rradius 35.988020849987066 -4.038178783545803e-07 -3.721273403972268e-06
rwrist 4.546329135005117e-07 43.703645008149 1.0163007029186283e-06
rhand -6.972260092956778 2.0321462048512455e-07 -36.68780446630613
rfingers 7.125022396385991 5.1024341088409163e-08 -3.1892353057445414e-07
rthumb 18.897492480477187 1.5447771905696147e-06 -65.78980959509936
65
root -0.567874014377594 -0.567874014377594 -0.567874014377594 -0.5678755879732001 -0.5678755879732001 -0.5678755879732001
lhipjoint -9.671654586443837e-08 -1.5341245206083327e-07 1.0672170578144923e-06
lfemur -17.769389408853907 -2.6679944063252177 -15.461115026017051
ltibia 24.207284956339684 -1.1466427853197476e-06 -4.36292817429695e-07
lfoot -18.97726567488835 1.4075484185055658e-06 12.292620152125755
ltoes -54.62926683092017 -1.3806250485714145e-06 2.07631556004579e-06
rhipjoint 1.1005675908711953e-07 6.870210827458292e-07 -1.494104084495789e-06
rfemur -8.134892759042232 4.913419949740556 11.125853087158326
rtibia 5.183362259230977 3.133899760952065e-07 -1.6466086790283452e-06
rfoot -18.400444246649727 1.5258978250914464e-06 -15.112316048124718
rtoes -4.47084973161994 -3.3686287675540645e-07 -4.201682703055483e-07
lowerback 22.913488325641065 0.9346294256462048 -1.053324666486098
upperback -0.31995330143879797 1.110930268502574 1.104031777440861
thorax -12.998243580185187 0.6140339530232934 1.4439431851191271
lowerneck -11.457395592112624 -2.029057957114028 -1.9248847656666397
upperneck 23.5797988923852 -3.0151462414105206 2.3060364286666197
head 9.370881229926802 -1.331763944747426 0.7745436119620046
lclavicle -1.4085775951116125e-07 5.4855408257763046e-08 -1.0938974842598547e-06
lhumerus -10.409417469642763 30.414665034432115 11.515681011394927
lradius 32.34226736161477 -1.502255057366819e-06 1.949183140762579e-06
lwrist -1.0969826731897491e-06 -48.96787670715293 2.6450757319591953e-07
lhand -4.562975323145072 2.6246558075710764e-07 -26.656099019086014
lfingers 7.125022823272814 9.845282338726802e-08 3.18924141240953e-07
lthumb 21.213298854421275 -1.2803152392500461e-07 2.20318914769186
rclavicle 1.398304276268298e-07 4.3880174074018323e-07 -1.3740421654916584e-06
rhumerus -14.308249957331538 -31.945457276499127 -7.5448011270199205
rradius 38.7223436502291 -7.050474489028664e-07 -3.4867155875454434e-06
rwrist 4.414379371268049e-07 43.0007263350009 9.868043914693602e-07
rhand -6.972260092956778 2.0321462048512455e-07 -36.68780446630613
rfingers 7.125022396385991 5.1024341088409163e-08 -3.1892353057445414e-07
rthumb 18.897492480477187 1.5447771905696147e-06 -65.78980959509936
66
root -0.567874014377594 -0.567874014377594 -0.567874014377594 -0.5678755879732001 -0.5678755879732001 -0.5678755879732001
lhipjoint -9.671654586443837e-08 -1.5341245206083327e-07 1.0672170578144923e-06
lfemur -18.178548475988936 -2.4285416344029107 -15.972682534472666
ltibia 25.406321250040836 -1.643648167841964e-06 3.6807444862216897e-07
lfoot -19.453394746835354 -1.3344632412577767e-06 12.028689689765415
ltoes -55.7043351911856 -8.765734906523212e-07 2.981982831146893e-06
rhipjoint 1.1005675908711953e-07 6.870210827458292e-07 -1.494104084495789e-06
rfemur -8.152159477264025 4.709702727555755 11.363408774038662
rtibia 5.838201950150895 1.8490991762680316e-07 -7.899543153462187e-07
rfoot -18.929497039380575 1.8261289559141276e-06 -15.010903106875661
rtoes -4.796773552208255 -1.218412179818034e-06 -4.605961227505689e-07
lowerback 23.065096327100548 1.0479969054900764 -0.9941752282737876
upperback -0.6208775891282347 1.2869168159354167 1.1852841346941558
thorax -13.387058075103687 0.7029494089993723 1.4482462042962352
lowerneck -11.457395592112624 -2.029057957114028 -1.9248847656666397
upperneck 23.5797988923852 -3.0151462414105206 2.3060364286666197
head 9.370881229926802 -1.331763944747426 0.7745436119620046
lclavicle -1.4085775951116125e-07 5.4855408257763046e-08 -1.0938974842598547e-06
lhumerus -16.325864786264855 27.797353619956155 13.99035587788622
lradius 36.10290463182668 -3.482802029509871e-07 1.9108841735102678e-06
lwrist -9.740957091842304e-07 -46.189092790508695 2.3487699145021894e-07
lhand -4.562975323145072 2.6246558075710764e-07 -26.656099019086014
lfingers 7.125022823272814 9.845282338726802e-08 3.18924141240953e-07
lthumb 21.213298854421275 -1.2803152392500461e-07 2.20318914769186
rclavicle 1.398304276268298e-07 4.3880174074018323e-07 -1.3740421654916584e-06
rhumerus -20.844386676970547 -31.116439650894243 -8.923105980771814
rradius 42.567234718947695 -1.8757541582759422e-06 -3.81856275501262e-06
rwrist 4.2487309945699385e-07 42.08625621268998 9.49768486092152e-07
rhand -6.972260092956778 2.0321462048512455e-07 -36.68780446630613
rfingers 7.125022396385991 5.1024341088409163e-08 -3.1892353057445414e-07
rthumb 18.897492480477187 1.5447771905696147e-06 -65.78980959509936
